<?xml version="1.0" encoding="UTF-8"?>
<svg width="437px" height="142px" viewBox="0 0 437 142" version="1.1" xmlns="http://www.w3.org/2000/svg" xmlns:xlink="http://www.w3.org/1999/xlink">
    <!-- Generator: Sketch 52.6 (67491) - http://www.bohemiancoding.com/sketch -->
    <title>logo-yuka</title>
    <desc>Created with Sketch.</desc>
    <defs>
        <path d="M40.8472263,55.2344738 L57.8167568,72.2040043 C59.1835918,73.5708393 61.3996693,73.5708393 62.7665043,72.2040043 C64.1333393,70.8371693 64.1333393,68.6210918 62.7665043,67.2542568 L44.3937304,48.8814829 L54.439,30.887 C58.41,24.852 65.964,23.967 71.265,28.869 L112.992,68.257 C115.314647,70.4050444 116.519031,73.0107592 116.64,75.6073079 L116.64,76.477116 C116.497532,79.5294909 114.854155,82.496564 111.767,84.613 L71.0918499,108.517734 L56.6746212,94.1005051 C55.3077862,92.73367 53.0917088,92.73367 51.7248737,94.1005051 C50.3580387,95.4673401 50.3580387,97.6834175 51.7248737,99.0502525 L64.8567281,112.182107 L15.842,140.988 C11.056,144.27 4.392,143.186 1.401,138.791 C1.401,138.791 -0.915,136.151 1.744,139.166 C-0.91,135.389 -0.477,128.399 2.69,123.587 L14.7620747,101.961822 L23.8713203,111.071068 C25.2381554,112.437903 27.4542328,112.437903 28.8210678,111.071068 C30.1879028,109.704233 30.1879028,107.488155 28.8210678,106.12132 L18.3085788,95.6088313 L40.8472263,55.2344738 Z" id="path-1"></path>
    </defs>
    <g id="Page-1" stroke="none" stroke-width="1" fill="none" fill-rule="evenodd">
        <g id="Logo-v2-(current)" transform="translate(-332.000000, -383.000000)">
            <g id="Text" transform="translate(332.750000, 381.312500)">
                <g id="Carrot">
                    <mask id="mask-2" fill="white">
                        <use xlink:href="#path-1"></use>
                    </mask>
                    <g id="Combined-Shape"></g>
                    <polygon id="Fill-7" fill="#FF9100" mask="url(#mask-2)" points="0 143 116.64 143 116.64 25.64 0 25.64"></polygon>
                    <path d="M107.275767,-0.0965436724 L107.275767,-0.0965436724 C109.761048,-0.0965436724 111.775767,1.91817495 111.775767,4.40345633 L111.775767,38.0408375 L110.077329,45.7781378 L102.775767,43.4633281 L102.775767,4.40345633 C102.775767,1.91817495 104.790486,-0.0965436724 107.275767,-0.0965436724 Z" id="Rectangle" fill="#3ACF6B" fill-rule="nonzero" transform="translate(107.275767, 22.840797) rotate(27.000000) translate(-107.275767, -22.840797) "></path>
                    <path d="M114.865328,17.329263 L114.865328,17.329263 C117.350609,17.329263 119.365328,19.3439816 119.365328,21.829263 L119.365328,52.5922903 L110.365328,51.7682062 L110.365328,21.829263 C110.365328,19.3439816 112.380046,17.329263 114.865328,17.329263 Z" id="Rectangle-Copy-5" fill="#3ACF6B" fill-rule="nonzero" transform="translate(114.865328, 34.960777) rotate(72.000000) translate(-114.865328, -34.960777) "></path>
                </g>
                <path d="M316.176891,115.00148 C314.131628,125.812417 311.248424,132.964503 305.309232,131.953674 C301.358485,131.281271 299.374365,127.581379 298.699563,121.971898 C298.057146,122.406911 297.392276,122.841924 296.704951,123.27694 C294.840521,124.456959 292.858119,125.58976 290.757686,126.675378 C288.657252,127.760995 286.54505,128.716796 284.421016,129.542809 C282.296982,130.368822 280.196579,131.029623 278.119746,131.525231 C276.042913,132.020839 274.107711,132.268639 272.314082,132.268639 C270.520453,132.268639 268.986452,131.914639 267.712031,131.206628 C266.437611,130.498616 265.34021,129.507415 264.419795,128.232995 C263.49938,126.958574 262.720579,125.436373 262.083369,123.666344 C261.446159,121.896316 260.891558,119.925714 260.419551,117.754479 C258.720324,119.972915 256.926722,122.014317 255.038691,123.878747 C253.150661,125.743177 251.227259,127.359778 249.268428,128.7286 C247.309596,130.097422 245.327194,131.171223 243.321162,131.950036 C241.31513,132.728848 239.368128,133.118249 237.480098,133.118249 C235.922473,133.118249 234.459271,132.858648 233.090449,132.33944 C231.721627,131.820232 230.506226,130.947031 229.444209,129.719811 C228.382192,128.492592 227.544391,126.87599 226.930781,124.869958 C226.317171,122.863926 226.010371,120.374123 226.010371,117.400475 C226.010371,113.766017 226.446972,109.140412 227.320186,103.523522 C228.1934,97.9066321 229.267201,91.4874254 230.541621,84.2657096 C230.636023,83.5576983 230.813023,82.6018973 231.072627,81.398278 C231.332231,80.1946587 231.686231,78.8848573 232.134639,77.4688346 C232.583046,76.0528119 233.137646,74.6132104 233.798457,73.149987 C234.459268,71.6867635 235.238068,70.3651621 236.134883,69.1851432 C237.031697,68.0051243 238.081898,67.0375233 239.285518,66.2823112 C240.489137,65.5270991 241.846138,65.1258987 243.356563,65.0786979 C245.858203,65.1730994 247.651804,65.4916998 248.737422,66.0345085 C249.823039,66.5773172 250.36584,67.2499179 250.36584,68.0523307 C249.941033,70.5539708 249.480833,73.3387737 248.985225,76.4068229 C248.489617,79.4748721 247.982216,82.5664753 247.463008,85.6817253 C246.943799,88.7969752 246.448199,91.8295783 245.976191,94.7796256 C245.504184,97.729673 245.079383,100.361076 244.701777,102.673913 C244.324171,104.98675 244.029171,106.851152 243.816768,108.267174 C243.604364,109.683197 243.498164,110.414798 243.498164,110.461999 C243.498164,111.311612 243.580764,112.125813 243.745967,112.904626 C243.911169,113.683438 244.15897,114.379639 244.489375,114.993249 C244.81978,115.606859 245.244581,116.102459 245.763789,116.480065 C246.282997,116.857671 246.896598,117.046471 247.604609,117.046471 C248.643026,117.046471 249.705027,116.775071 250.790645,116.232262 C251.876262,115.689454 252.902863,114.910653 253.870479,113.895837 C254.838094,112.88102 255.699495,111.630219 256.454707,110.143395 C257.209919,108.656571 257.77632,106.96917 258.153926,105.081139 L265.163203,69.1143424 C265.399207,67.9815243 266.355008,67.0257233 268.030635,66.2469108 C269.706262,65.4680983 271.606064,65.0786979 273.730098,65.0786979 C276.137336,65.0786979 278.048938,65.5034984 279.464961,66.353112 C280.880984,67.2027256 281.588984,68.2883267 281.588984,69.6099479 C281.588984,70.8843683 281.447384,72.6189701 281.16418,74.8138053 C280.880975,77.0086405 280.515175,79.415843 280.066768,82.035485 C279.61836,84.655127 279.13456,87.3573298 278.615352,90.1421745 C278.096143,92.9270191 277.612343,95.5230218 277.163936,97.9302604 C276.715528,100.337499 276.349728,102.449701 276.066523,104.26693 C275.783319,106.084159 275.641719,107.346761 275.641719,108.054772 C275.641719,109.376393 275.665319,110.591795 275.71252,111.701012 C275.75972,112.81023 275.90132,113.777831 276.137324,114.603844 C276.373328,115.429858 276.739128,116.067058 277.234736,116.515465 C277.730344,116.963873 278.450145,117.188073 279.39416,117.188073 C280.432577,117.188073 281.695178,116.928473 283.182002,116.409264 C284.668826,115.890056 286.250027,115.193855 287.925654,114.320641 C289.601281,113.447427 291.312283,112.456226 293.058711,111.347008 C294.805139,110.237791 296.468941,109.069589 298.050166,107.84237 C298.394226,107.575338 298.731581,107.308866 299.062232,107.042952 C300.358313,95.6572096 303.418354,81.9466114 306.201238,69.3825419 C312.286212,41.9103053 320.962031,30.7128948 329.055781,36.2568803 C337.149531,41.8008659 329.305014,42.8233002 323.0297,71.1548782 C321.936734,76.0893624 321.069254,81.2143687 320.315283,86.3025114 C320.595996,85.9972628 320.879017,85.6889301 321.164316,85.3774619 C340.170177,64.6282942 349.782362,60.9388349 354.019762,69.7869422 C358.257163,78.6350495 354.452394,73.9283722 334.852024,95.3265812 C333.240402,97.0860284 331.665572,98.6962817 330.144133,100.184658 C329.6525,100.92274 329.055781,101.610913 329.055781,104.081139 C329.055781,109.249596 333.963615,112.8827 334.321895,113.21444 C335.596315,114.394459 338.782344,116.887292 342.888789,117.6661 C346.004039,118.704517 349.166442,117.444917 352.376094,115.887292 C353.313497,115.432375 354.230767,114.927135 355.127904,114.371569 C355.108468,113.947837 355.09875,113.517856 355.09875,113.081628 C355.09875,109.541571 355.594351,105.907167 356.585566,102.178307 C357.576782,98.4494475 358.945584,94.8032437 360.692012,91.2395866 C362.43844,87.6759294 364.503442,84.312926 366.88708,81.1504753 C369.270718,77.9880246 371.878521,75.2268217 374.710566,72.8667839 C377.542612,70.506746 380.528015,68.6305441 383.666865,67.2381217 C386.805716,65.8456994 390.554434,65.1494987 393.260371,65.1494987 C395.966309,65.1494987 400.658691,65.1494987 404.730976,67.1520389 C408.803261,69.1545791 411.090367,72.725178 411.349971,73.5747917 C411.609575,74.4244053 411.739375,75.5808065 411.739375,77.0440299 C411.739375,79.3096663 411.503375,81.8230689 411.031367,84.5843131 C410.55936,87.3455574 410.040159,90.1775604 409.47375,93.0804069 C408.907341,95.9832534 408.38814,98.8860564 407.916133,101.788903 C407.444125,104.69175 407.208125,107.441152 407.208125,110.037194 C407.208125,112.25563 407.408725,113.990231 407.809932,115.241051 C408.211138,116.491871 409.072539,117.117272 410.39416,117.117272 C411.385376,117.117272 412.423777,116.869472 413.509395,116.373864 C414.595012,115.878256 415.692413,115.229255 416.801631,114.426842 C417.910849,113.62443 419.02005,112.715829 420.129268,111.701012 C421.238485,110.686196 422.288686,109.635995 423.279902,108.550378 C425.592739,106.001537 430.031484,103.337806 433.687617,106.6875 C437.34375,110.037194 433.687617,115.630456 433.687617,115.630456 C432.602,117.14088 431.150598,118.910882 429.333369,120.940514 C427.51614,122.970147 425.474738,124.905349 423.209102,126.746178 C420.943465,128.587008 418.512663,130.14461 415.916621,131.41903 C413.320579,132.69345 410.724577,133.330651 408.128535,133.330651 C405.013285,133.330651 402.417283,132.32765 400.340449,130.321618 C398.263616,128.315586 396.470014,125.400983 394.95959,121.577721 C393.826772,122.899343 392.43437,124.244544 390.782344,125.613366 C389.130317,126.982188 387.324915,128.221189 385.366084,129.330407 C383.407253,130.439625 381.36585,131.348226 379.241816,132.056237 C377.117782,132.764248 374.99378,133.118249 372.869746,133.118249 C370.60411,133.118249 368.397507,132.658048 366.249873,131.737633 C364.274403,130.891003 362.508623,129.70493 360.952489,128.179384 C358.775463,129.375666 356.781418,129.931649 354.146113,130.897057 C349.378837,132.643485 344.257632,133.091886 338.782344,132.242272 C336.327904,131.864666 333.920702,131.015065 331.560664,129.693444 C329.200626,128.371823 327.005824,126.790621 324.976191,124.949792 C322.946559,123.108962 321.034957,121.10296 319.241328,118.931725 C318.129094,117.585337 317.107619,116.27526 316.176891,115.00148 Z M373.22375,110.037194 C373.22375,111.217213 373.30635,112.361814 373.471553,113.471032 C373.636755,114.58025 373.931756,115.571451 374.356563,116.444665 C374.781369,117.317879 375.34777,118.025879 376.055781,118.568688 C376.763793,119.111497 377.660594,119.382897 378.746211,119.382897 C380.492639,119.382897 382.073841,118.627696 383.489863,117.117272 C384.905886,115.606848 386.133087,113.789646 387.171504,111.665612 C388.209921,109.541578 389.047721,107.346776 389.684932,105.081139 C390.322142,102.815503 390.735142,100.927501 390.923945,99.4170768 L395.242793,78.6016471 C393.307562,78.6016471 391.41956,79.0854476 389.57873,80.0530631 C387.737901,81.0206787 386.003299,82.33048 384.374873,83.9825065 C382.746447,85.634533 381.247845,87.522535 379.879023,89.646569 C378.510201,91.7706031 377.3302,94.0008054 376.338984,96.3372428 C375.347768,98.6736803 374.580768,101.021883 374.037959,103.381921 C373.49515,105.741958 373.22375,107.960361 373.22375,110.037194 Z" id="Combined-Shape-Copy-2" fill="#4A4A4A"></path>
                <path d="M215.507367,93.4203853 C211.246589,99.2395118 207.401924,104.318676 203.97245,108.656957 C200.542976,112.996159 197.412439,116.723648 194.580839,119.841268 C191.74924,122.958888 189.151069,125.544141 186.787251,127.596105 C184.423433,129.648992 182.150034,131.259009 179.967977,132.428001 C177.784997,133.597915 175.655531,134.41538 173.57681,134.883161 C171.498089,135.350942 172.303084,135.585294 167.029716,135.585294 C161.756348,135.585294 152.555664,132.98881 152.555664,126.915039 C152.555664,120.841268 156.059606,120.464976 159.703909,120.464976 C163.348211,120.464976 167.108141,119.776683 170.22576,118.399173 C173.34338,117.022585 176.148223,115.242802 178.643057,113.060745 C181.136969,110.878687 183.370694,108.397693 185.345156,105.617762 C187.319618,102.83783 189.086484,100.044981 190.644833,97.2392159 C192.204104,94.4334502 193.593608,91.7448606 194.815191,89.1725244 C196.035852,86.6001882 197.166093,84.405214 198.204992,82.5866793 C196.386457,78.0140472 194.516254,73.4681717 192.59346,68.9472078 C190.671589,64.4271664 188.670371,60.1018033 186.592573,55.9711185 C184.513852,51.8404336 182.39638,48.0077633 180.240157,44.4749529 C178.083934,40.9421425 175.526706,37.220615 172.136906,32.5634598 C168.747105,27.9063047 164.715572,22.0760309 163.348211,19.755577 C161.716974,16.9876398 162.63962,13.7583798 165.193503,10.9904427 C169.305664,8.46778138 172.958637,9.94862774 176.64922,12.9130884 C181.211703,16.5787598 183.319026,19.0929694 187.528136,24.2625533 C191.736323,29.4321372 195.659412,36.4082615 199.296482,43.3447119 C202.933551,50.2811624 206.466361,57.6724772 209.895836,65.5186563 C212.961787,59.9587932 215.910563,54.4902721 218.742163,49.1121703 C221.573762,43.7340684 224.18485,38.7074946 226.574502,34.0315261 C228.965077,29.354635 231.108383,25.1335309 233.00442,21.3663684 C234.90138,17.599206 236.472645,14.547094 237.720062,12.2081871 C238.395439,10.9616927 239.629016,9.94862774 241.421717,9.16899212 C243.214417,8.38935649 245.150128,8 247.228849,8 C248.319416,8 249.385072,8.15592713 250.423971,8.46778138 C251.46287,8.77963563 252.385516,9.27325108 253.190986,9.94862774 C253.996455,10.6240044 254.658915,11.5198934 255.178364,12.6372173 C255.697814,13.7545413 255.958,15.0923776 255.958,16.6507262 C255.958,18.8337059 255.281701,21.5093785 253.930947,24.6786665 C252.736121,27.432764 251.060597,30.9914085 248.904374,35.3564453 C246.748151,39.7205596 244.201648,44.605046 241.26579,50.0089819 C238.330854,55.4119952 235.070224,61.1665365 231.484823,67.2716831 C227.899421,73.3768298 224.133181,79.5216503 220.184258,85.7042992 L215.507367,93.4203853 Z" id="Y" fill="#4A4A4A"></path>
            </g>
        </g>
    </g>
</svg>